<svg width="1280" height="720" viewBox="0 0 1280 720" xmlns="http://www.w3.org/2000/svg"><defs><linearGradient id="bg" x1="0" y1="0" x2="1" y2="1"><stop offset="0" stop-color="#0a0f1c"/><stop offset="1" stop-color="#060509"/></linearGradient><radialGradient id="a" cx="0.5" cy="0.5" r="0.5"><stop offset="0" stop-color="#38bdf8" stop-opacity="0.4"/><stop offset="1" stop-color="#38bdf8" stop-opacity="0"/></radialGradient><radialGradient id="b" cx="0.5" cy="0.5" r="0.5"><stop offset="0" stop-color="#22d3ee" stop-opacity="0.35"/><stop offset="1" stop-color="#22d3ee" stop-opacity="0"/></radialGradient><pattern id="dg" width="30" height="30" patternUnits="userSpaceOnUse"><circle cx="2" cy="2" r="1.3" fill="#ffffff" opacity="0.05"/></pattern></defs><rect width="1280" height="720" fill="url(#bg)"/>
       <circle cx="1050" cy="180" r="380" fill="url(#a)"/><circle cx="200" cy="600" r="340" fill="url(#b)"/>
       <rect width="1280" height="720" fill="url(#dg)"/>
       <circle cx="305" cy="104" r="5" fill="#38bdf8"/><text x="320" y="110" font-family="'Outfit','Inter',system-ui,-apple-system,'Segoe UI',Roboto,sans-serif" font-size="20" font-weight="600" letter-spacing="4" fill="#38bdf8">FREE BROWSER TOOLS</text>
       <rect x="300" y="150" width="680" height="440" rx="24" fill="#0c1322" stroke="#ffffff" stroke-opacity="0.08"/>
       <rect x="324" y="178" width="632" height="56" rx="14" fill="#ffffff08"/>
       <circle cx="356" cy="206" r="9" fill="none" stroke="#64748b" stroke-width="2.5"/><line x1="363" y1="213" x2="372" y2="222" stroke="#64748b" stroke-width="2.5" stroke-linecap="round"/>
       <text x="386" y="212" font-family="'Outfit','Inter',system-ui,-apple-system,'Segoe UI',Roboto,sans-serif" font-size="19" fill="#94a3b8">Search developer tools...</text>
       <rect x="324" y="270" width="632" height="50" rx="12" fill="#22d3ee22" stroke="#22d3ee" stroke-opacity="0.5"/>
        <rect x="336" y="279" width="32" height="32" rx="9" fill="#22d3ee22"/>
        <text x="352" y="301" font-family="'JetBrains Mono','Fira Code',ui-monospace,'Cascadia Code',Consolas,monospace" font-size="15" fill="#22d3ee" text-anchor="middle">{ }</text>
        <text x="384" y="301" font-family="'Outfit','Inter',system-ui,-apple-system,'Segoe UI',Roboto,sans-serif" font-size="19" font-weight="600" fill="#e5e7eb">JSON Formatter</text><rect x="894" y="283" width="50" height="24" rx="6" fill="#ffffff10"/><text x="919" y="300" font-family="'JetBrains Mono','Fira Code',ui-monospace,'Cascadia Code',Consolas,monospace" font-size="13" fill="#94a3b8" text-anchor="middle">enter</text><rect x="324" y="330" width="632" height="50" rx="12" fill="#ffffff08" />
        <rect x="336" y="339" width="32" height="32" rx="9" fill="#a78bfa22"/>
        <text x="352" y="361" font-family="'JetBrains Mono','Fira Code',ui-monospace,'Cascadia Code',Consolas,monospace" font-size="15" fill="#a78bfa" text-anchor="middle">.*</text>
        <text x="384" y="361" font-family="'Outfit','Inter',system-ui,-apple-system,'Segoe UI',Roboto,sans-serif" font-size="19" font-weight="600" fill="#e5e7eb">Regex Tester</text><rect x="324" y="390" width="632" height="50" rx="12" fill="#ffffff08" />
        <rect x="336" y="399" width="32" height="32" rx="9" fill="#34d39922"/>
        <text x="352" y="421" font-family="'JetBrains Mono','Fira Code',ui-monospace,'Cascadia Code',Consolas,monospace" font-size="15" fill="#34d399" text-anchor="middle">•—</text>
        <text x="384" y="421" font-family="'Outfit','Inter',system-ui,-apple-system,'Segoe UI',Roboto,sans-serif" font-size="19" font-weight="600" fill="#e5e7eb">JWT Decoder</text><rect x="324" y="450" width="632" height="50" rx="12" fill="#ffffff08" />
        <rect x="336" y="459" width="32" height="32" rx="9" fill="#fbbf2422"/>
        <text x="352" y="481" font-family="'JetBrains Mono','Fira Code',ui-monospace,'Cascadia Code',Consolas,monospace" font-size="15" fill="#fbbf24" text-anchor="middle">⌗</text>
        <text x="384" y="481" font-family="'Outfit','Inter',system-ui,-apple-system,'Segoe UI',Roboto,sans-serif" font-size="19" font-weight="600" fill="#e5e7eb">Base64 Encode / Decode</text><rect x="324" y="510" width="632" height="50" rx="12" fill="#ffffff08" />
        <rect x="336" y="519" width="32" height="32" rx="9" fill="#fb718522"/>
        <text x="352" y="541" font-family="'JetBrains Mono','Fira Code',ui-monospace,'Cascadia Code',Consolas,monospace" font-size="15" fill="#fb7185" text-anchor="middle">#</text>
        <text x="384" y="541" font-family="'Outfit','Inter',system-ui,-apple-system,'Segoe UI',Roboto,sans-serif" font-size="19" font-weight="600" fill="#e5e7eb">Hash Generator</text>
       <text x="980" y="650" font-family="'Outfit','Inter',system-ui,-apple-system,'Segoe UI',Roboto,sans-serif" font-size="120" font-weight="800" fill="#ffffff" fill-opacity="0.06" text-anchor="end">5</text></svg>
