<svg width="1280" height="720" viewBox="0 0 1280 720" xmlns="http://www.w3.org/2000/svg"><defs><linearGradient id="bg" x1="0" y1="0" x2="1" y2="1"><stop offset="0" stop-color="#06140f"/><stop offset="1" stop-color="#04080a"/></linearGradient><radialGradient id="e" cx="0.5" cy="0.5" r="0.5"><stop offset="0" stop-color="#34d399" stop-opacity="0.45"/><stop offset="1" stop-color="#34d399" stop-opacity="0"/></radialGradient><radialGradient id="c" cx="0.5" cy="0.5" r="0.5"><stop offset="0" stop-color="#22d3ee" stop-opacity="0.4"/><stop offset="1" stop-color="#22d3ee" stop-opacity="0"/></radialGradient><pattern id="dg" width="30" height="30" patternUnits="userSpaceOnUse"><circle cx="2" cy="2" r="1.3" fill="#ffffff" opacity="0.05"/></pattern></defs><rect width="1280" height="720" fill="url(#bg)"/>
       <marker id="ah6" markerWidth="10" markerHeight="10" refX="7" refY="3" orient="auto"><path d="M0,0 L7,3 L0,6 Z" fill="#94a3b8"/></marker>
       <circle cx="1050" cy="180" r="360" fill="url(#e)"/><circle cx="220" cy="600" r="320" fill="url(#c)"/>
       <rect width="1280" height="720" fill="url(#dg)"/>
       <circle cx="155" cy="144" r="5" fill="#34d399"/><text x="170" y="150" font-family="'Outfit','Inter',system-ui,-apple-system,'Segoe UI',Roboto,sans-serif" font-size="20" font-weight="600" letter-spacing="4" fill="#34d399">FULL-STACK BUILD</text>
       <text x="150" y="230" font-family="'Outfit','Inter',system-ui,-apple-system,'Segoe UI',Roboto,sans-serif" font-size="44" font-weight="700" fill="#ffffff" letter-spacing="-1" text-anchor="start">Building a Full-Stack Java Project with</text><text x="150" y="278" font-family="'Outfit','Inter',system-ui,-apple-system,'Segoe UI',Roboto,sans-serif" font-size="44" font-weight="700" fill="#ffffff" letter-spacing="-1" text-anchor="start">Spring Boot &amp; React</text>
       <rect x="150" y="330" width="280" height="150" rx="20" fill="#0b1a16" stroke="#22d3ee" stroke-opacity="0.7" stroke-width="2"/>
        <rect x="174" y="358" width="40" height="40" rx="11" fill="#22d3ee22"/>
        <circle cx="194" cy="378" r="11" fill="none" stroke="#22d3ee" stroke-width="2.5"/>
        <text x="230" y="376" font-family="'Outfit','Inter',system-ui,-apple-system,'Segoe UI',Roboto,sans-serif" font-size="26" font-weight="700" fill="#fff">React</text>
        <text x="230" y="404" font-family="'JetBrains Mono','Fira Code',ui-monospace,'Cascadia Code',Consolas,monospace" font-size="15" fill="#22d3ee">client</text>
        <text x="174" y="452" font-family="'JetBrains Mono','Fira Code',ui-monospace,'Cascadia Code',Consolas,monospace" font-size="13" fill="#64748b">fetch / axios</text><line x1="430" y1="405" x2="545" y2="405" stroke="#64748b" stroke-width="2.5" marker-end="url(#ah6)"/><rect x="545" y="330" width="280" height="150" rx="20" fill="#0b1a16" stroke="#34d399" stroke-opacity="0.7" stroke-width="2"/>
        <rect x="569" y="358" width="40" height="40" rx="11" fill="#34d39922"/>
        <circle cx="589" cy="378" r="11" fill="none" stroke="#34d399" stroke-width="2.5"/>
        <text x="625" y="376" font-family="'Outfit','Inter',system-ui,-apple-system,'Segoe UI',Roboto,sans-serif" font-size="26" font-weight="700" fill="#fff">Spring Boot</text>
        <text x="625" y="404" font-family="'JetBrains Mono','Fira Code',ui-monospace,'Cascadia Code',Consolas,monospace" font-size="15" fill="#34d399">REST API</text>
        <text x="569" y="452" font-family="'JetBrains Mono','Fira Code',ui-monospace,'Cascadia Code',Consolas,monospace" font-size="13" fill="#64748b">JPA / Hibernate</text><line x1="825" y1="405" x2="940" y2="405" stroke="#64748b" stroke-width="2.5" marker-end="url(#ah6)"/><rect x="940" y="330" width="280" height="150" rx="20" fill="#0b1a16" stroke="#a78bfa" stroke-opacity="0.7" stroke-width="2"/>
        <rect x="964" y="358" width="40" height="40" rx="11" fill="#a78bfa22"/>
        <circle cx="984" cy="378" r="11" fill="none" stroke="#a78bfa" stroke-width="2.5"/>
        <text x="1020" y="376" font-family="'Outfit','Inter',system-ui,-apple-system,'Segoe UI',Roboto,sans-serif" font-size="26" font-weight="700" fill="#fff">PostgreSQL</text>
        <text x="1020" y="404" font-family="'JetBrains Mono','Fira Code',ui-monospace,'Cascadia Code',Consolas,monospace" font-size="15" fill="#a78bfa">database</text>
        <text x="964" y="452" font-family="'JetBrains Mono','Fira Code',ui-monospace,'Cascadia Code',Consolas,monospace" font-size="13" fill="#64748b">SQL</text><g transform="translate(450,405)"><rect x="-26" y="-18" width="52" height="36" rx="8" fill="#0b1a16" stroke="#34d399"/><rect x="-9" y="-4" width="18" height="14" rx="3" fill="#34d399"/><path d="M -5 -4 v -6 a 5 5 0 0 1 10 0 v 6" fill="none" stroke="#34d399" stroke-width="2"/><text x="0" y="34" font-family="'JetBrains Mono','Fira Code',ui-monospace,'Cascadia Code',Consolas,monospace" font-size="13" fill="#34d399" text-anchor="middle">JWT</text></g>
       <text x="150" y="560" font-family="'JetBrains Mono','Fira Code',ui-monospace,'Cascadia Code',Consolas,monospace" font-size="16" fill="#5eead4">React  +  Spring Boot  +  JWT  +  PostgreSQL</text></svg>
