<svg width="1280" height="720" viewBox="0 0 1280 720" xmlns="http://www.w3.org/2000/svg"><defs><linearGradient id="bg" x1="0" y1="0" x2="1" y2="1"><stop offset="0" stop-color="#0d0b1a"/><stop offset="1" stop-color="#070512"/></linearGradient><radialGradient id="v" cx="0.5" cy="0.5" r="0.5"><stop offset="0" stop-color="#8b5cf6" stop-opacity="0.5"/><stop offset="1" stop-color="#8b5cf6" stop-opacity="0"/></radialGradient><radialGradient id="c" cx="0.5" cy="0.5" r="0.5"><stop offset="0" stop-color="#22d3ee" stop-opacity="0.45"/><stop offset="1" stop-color="#22d3ee" stop-opacity="0"/></radialGradient><pattern id="dg" width="30" height="30" patternUnits="userSpaceOnUse"><circle cx="2" cy="2" r="1.3" fill="#ffffff" opacity="0.05"/></pattern><radialGradient id="orb" cx="0.35" cy="0.35" r="0.75"><stop offset="0" stop-color="#a78bfa"/><stop offset="0.5" stop-color="#7c3aed"/><stop offset="1" stop-color="#22d3ee"/></radialGradient></defs><rect width="1280" height="720" fill="url(#bg)"/>
     <circle cx="1080" cy="170" r="430" fill="url(#v)"/><circle cx="220" cy="620" r="360" fill="url(#c)"/>
     <rect width="1280" height="720" fill="url(#dg)"/>
     <!-- window -->
     <rect x="150" y="150" width="980" height="470" rx="22" fill="#0c0a18" stroke="#ffffff" stroke-opacity="0.10"/>
     <rect x="150" y="150" width="980" height="56" rx="22" fill="#15122480"/>
     <circle cx="186" cy="178" r="7" fill="#ff5f57"/><circle cx="210" cy="178" r="7" fill="#febc2e"/><circle cx="234" cy="178" r="7" fill="#28c840"/>
     <rect x="420" y="164" width="440" height="28" rx="14" fill="#ffffff" fill-opacity="0.06"/>
     <text x="640" y="184" font-family="'JetBrains Mono','Fira Code',ui-monospace,'Cascadia Code',Consolas,monospace" font-size="16" fill="#a5b4fc" text-anchor="middle">kalanalk.com</text>
     <!-- content: nav pills + heading + shader orb -->
     <g>
       <rect x="196" y="248" width="92" height="30" rx="15" fill="#ffffff" fill-opacity="0.08"/><text x="242" y="268" font-family="'Outfit','Inter',system-ui,-apple-system,'Segoe UI',Roboto,sans-serif" font-size="15" fill="#cbd5e1" text-anchor="middle">Home</text>
       <rect x="300" y="248" width="92" height="30" rx="15" fill="#ffffff" fill-opacity="0.05"/><text x="346" y="268" font-family="'Outfit','Inter',system-ui,-apple-system,'Segoe UI',Roboto,sans-serif" font-size="15" fill="#94a3b8" text-anchor="middle">Work</text>
       <rect x="404" y="248" width="92" height="30" rx="15" fill="#ffffff" fill-opacity="0.05"/><text x="450" y="268" font-family="'Outfit','Inter',system-ui,-apple-system,'Segoe UI',Roboto,sans-serif" font-size="15" fill="#94a3b8" text-anchor="middle">About</text>
       <circle cx="980" cy="410" r="135" fill="url(#orb)"/>
       <circle cx="980" cy="410" r="160" fill="none" stroke="#a78bfa" stroke-opacity="0.25"/>
       <circle cx="980" cy="410" r="190" fill="none" stroke="#22d3ee" stroke-opacity="0.15"/>
     </g>
     <circle cx="201" cy="334" r="5" fill="#a78bfa"/><text x="216" y="340" font-family="'Outfit','Inter',system-ui,-apple-system,'Segoe UI',Roboto,sans-serif" font-size="20" font-weight="600" letter-spacing="4" fill="#a78bfa">BUILD LOG</text>
     <text x="196" y="392" font-family="'Outfit','Inter',system-ui,-apple-system,'Segoe UI',Roboto,sans-serif" font-size="52" font-weight="700" fill="#ffffff" letter-spacing="-1" text-anchor="start">Building this</text><text x="196" y="449" font-family="'Outfit','Inter',system-ui,-apple-system,'Segoe UI',Roboto,sans-serif" font-size="52" font-weight="700" fill="#ffffff" letter-spacing="-1" text-anchor="start">portfolio: motion,</text><text x="196" y="506" font-family="'Outfit','Inter',system-ui,-apple-system,'Segoe UI',Roboto,sans-serif" font-size="52" font-weight="700" fill="#ffffff" letter-spacing="-1" text-anchor="start">shaders, and a CMS</text>
     <rect x="198" y="560" width="120" height="6" rx="3" fill="#22d3ee"/></svg>
