<svg width="1280" height="720" viewBox="0 0 1280 720" xmlns="http://www.w3.org/2000/svg"><defs><linearGradient id="bg" x1="0" y1="0" x2="1" y2="1"><stop offset="0" stop-color="#06121a"/><stop offset="1" stop-color="#04070c"/></linearGradient><radialGradient id="c" cx="0.5" cy="0.5" r="0.5"><stop offset="0" stop-color="#22d3ee" stop-opacity="0.45"/><stop offset="1" stop-color="#22d3ee" stop-opacity="0"/></radialGradient><radialGradient id="e" cx="0.5" cy="0.5" r="0.5"><stop offset="0" stop-color="#34d399" stop-opacity="0.38"/><stop offset="1" stop-color="#34d399" stop-opacity="0"/></radialGradient><pattern id="dg" width="30" height="30" patternUnits="userSpaceOnUse"><circle cx="2" cy="2" r="1.3" fill="#ffffff" opacity="0.05"/></pattern></defs><rect width="1280" height="720" fill="url(#bg)"/>
       <circle cx="900" cy="200" r="380" fill="url(#c)"/><circle cx="200" cy="600" r="300" fill="url(#e)"/>
       <rect width="1280" height="720" fill="url(#dg)"/>
       <circle cx="101" cy="244" r="5" fill="#38bdf8"/><text x="116" y="250" font-family="'Outfit','Inter',system-ui,-apple-system,'Segoe UI',Roboto,sans-serif" font-size="20" font-weight="600" letter-spacing="4" fill="#38bdf8">BEHIND THE BUILD</text>
       <text x="96" y="320" font-family="'Outfit','Inter',system-ui,-apple-system,'Segoe UI',Roboto,sans-serif" font-size="46" font-weight="700" fill="#ffffff" letter-spacing="-1" text-anchor="start">How I Built 30+</text><text x="96" y="371" font-family="'Outfit','Inter',system-ui,-apple-system,'Segoe UI',Roboto,sans-serif" font-size="46" font-weight="700" fill="#ffffff" letter-spacing="-1" text-anchor="start">Free Browser</text><text x="96" y="422" font-family="'Outfit','Inter',system-ui,-apple-system,'Segoe UI',Roboto,sans-serif" font-size="46" font-weight="700" fill="#ffffff" letter-spacing="-1" text-anchor="start">Tools with</text><text x="96" y="473" font-family="'Outfit','Inter',system-ui,-apple-system,'Segoe UI',Roboto,sans-serif" font-size="46" font-weight="700" fill="#ffffff" letter-spacing="-1" text-anchor="start">Next.js &amp;</text><text x="96" y="524" font-family="'Outfit','Inter',system-ui,-apple-system,'Segoe UI',Roboto,sans-serif" font-size="46" font-weight="700" fill="#ffffff" letter-spacing="-1" text-anchor="start">Supabase</text>
       <rect x="98" y="470" width="120" height="6" rx="3" fill="#22d3ee"/>
       <text x="96" y="540" font-family="'Outfit','Inter',system-ui,-apple-system,'Segoe UI',Roboto,sans-serif" font-size="18" fill="#94a3b8">Architecture, performance, privacy.</text>
       <circle cx="850" cy="170" r="46" fill="#0b1620" stroke="#34d399"/><text x="850" y="178" font-family="'Outfit','Inter',system-ui,-apple-system,'Segoe UI',Roboto,sans-serif" font-size="22" font-weight="800" fill="#34d399" text-anchor="middle">30+</text>
       <g transform="translate(850,310)">
          <polygon points="0,-70 230,0 0,70 -230,0" fill="#34d399" fill-opacity="0.16" stroke="#34d399" stroke-opacity="0.6"/>
          <polygon points="-230,0 0,70 0,96 -230,26" fill="#34d399" fill-opacity="0.10"/>
          <polygon points="230,0 0,70 0,96 230,26" fill="#34d399" fill-opacity="0.18"/>
          <text x="0" y="4" font-family="'Outfit','Inter',system-ui,-apple-system,'Segoe UI',Roboto,sans-serif" font-size="17" font-weight="600" fill="#34d399" text-anchor="middle">Supabase - data + storage</text>
        </g><g transform="translate(850,380)">
          <polygon points="0,-70 230,0 0,70 -230,0" fill="#a78bfa" fill-opacity="0.16" stroke="#a78bfa" stroke-opacity="0.6"/>
          <polygon points="-230,0 0,70 0,96 -230,26" fill="#a78bfa" fill-opacity="0.10"/>
          <polygon points="230,0 0,70 0,96 230,26" fill="#a78bfa" fill-opacity="0.18"/>
          <text x="0" y="4" font-family="'Outfit','Inter',system-ui,-apple-system,'Segoe UI',Roboto,sans-serif" font-size="17" font-weight="600" fill="#a78bfa" text-anchor="middle">Next.js 16 - App Router</text>
        </g><g transform="translate(850,450)">
          <polygon points="0,-70 230,0 0,70 -230,0" fill="#38bdf8" fill-opacity="0.16" stroke="#38bdf8" stroke-opacity="0.6"/>
          <polygon points="-230,0 0,70 0,96 -230,26" fill="#38bdf8" fill-opacity="0.10"/>
          <polygon points="230,0 0,70 0,96 230,26" fill="#38bdf8" fill-opacity="0.18"/>
          <text x="0" y="4" font-family="'Outfit','Inter',system-ui,-apple-system,'Segoe UI',Roboto,sans-serif" font-size="17" font-weight="600" fill="#38bdf8" text-anchor="middle">Browser (client-side)</text>
        </g></svg>
