<svg width="1280" height="720" viewBox="0 0 1280 720" xmlns="http://www.w3.org/2000/svg"><defs><linearGradient id="bg" x1="0" y1="0" x2="0" y2="1"><stop offset="0" stop-color="#fffdf8"/><stop offset="1" stop-color="#fbf7ee"/></linearGradient></defs><rect width="1280" height="720" fill="url(#bg)"/>
       <line x1="120" y1="150" x2="1200" y2="150" stroke="#cdd9ec" stroke-width="1.5"/><line x1="120" y1="196" x2="1200" y2="196" stroke="#cdd9ec" stroke-width="1.5"/><line x1="120" y1="242" x2="1200" y2="242" stroke="#cdd9ec" stroke-width="1.5"/><line x1="120" y1="288" x2="1200" y2="288" stroke="#cdd9ec" stroke-width="1.5"/><line x1="120" y1="334" x2="1200" y2="334" stroke="#cdd9ec" stroke-width="1.5"/><line x1="120" y1="380" x2="1200" y2="380" stroke="#cdd9ec" stroke-width="1.5"/><line x1="120" y1="426" x2="1200" y2="426" stroke="#cdd9ec" stroke-width="1.5"/><line x1="120" y1="472" x2="1200" y2="472" stroke="#cdd9ec" stroke-width="1.5"/><line x1="120" y1="518" x2="1200" y2="518" stroke="#cdd9ec" stroke-width="1.5"/><line x1="120" y1="564" x2="1200" y2="564" stroke="#cdd9ec" stroke-width="1.5"/><line x1="120" y1="610" x2="1200" y2="610" stroke="#cdd9ec" stroke-width="1.5"/><line x1="120" y1="656" x2="1200" y2="656" stroke="#cdd9ec" stroke-width="1.5"/>
       <line x1="150" y1="80" x2="150" y2="660" stroke="#f4a8a8" stroke-width="2.5"/>
       <circle cx="100" cy="180" r="6" fill="none" stroke="#9aa7bd" stroke-width="2"/>
       <circle cx="100" cy="360" r="6" fill="none" stroke="#9aa7bd" stroke-width="2"/>
       <circle cx="100" cy="540" r="6" fill="none" stroke="#9aa7bd" stroke-width="2"/>
       <!-- highlighter behind eyebrow -->
       <rect x="186" y="158" width="360" height="26" fill="#fde68a" opacity="0.8"/>
       <text x="190" y="180" font-family="'Outfit','Inter',system-ui,-apple-system,'Segoe UI',Roboto,sans-serif" font-size="20" font-weight="700" letter-spacing="3" fill="#92400e">UNIVERSITY OF MORATUWA</text>
       <text x="188" y="270" font-family="'Outfit','Inter',system-ui,-apple-system,'Segoe UI',Roboto,sans-serif" font-size="50" font-weight="800" fill="#1f2937" letter-spacing="-1" text-anchor="start">Studying IT at the</text><text x="188" y="325" font-family="'Outfit','Inter',system-ui,-apple-system,'Segoe UI',Roboto,sans-serif" font-size="50" font-weight="800" fill="#1f2937" letter-spacing="-1" text-anchor="start">University of</text><text x="188" y="380" font-family="'Outfit','Inter',system-ui,-apple-system,'Segoe UI',Roboto,sans-serif" font-size="50" font-weight="800" fill="#1f2937" letter-spacing="-1" text-anchor="start">Moratuwa: An Honest</text><text x="188" y="435" font-family="'Outfit','Inter',system-ui,-apple-system,'Segoe UI',Roboto,sans-serif" font-size="50" font-weight="800" fill="#1f2937" letter-spacing="-1" text-anchor="start">Guide</text>
       <!-- graduation cap doodle -->
       <g transform="translate(980,470)" stroke="#7c3aed" stroke-width="3" fill="none" stroke-linejoin="round">
         <path d="M -90 0 L 0 -45 L 90 0 L 0 45 Z" fill="#7c3aed" fill-opacity="0.12"/>
         <path d="M 90 0 v 55 M -40 18 v 45 a 40 22 0 0 0 80 0 v -45" />
         <circle cx="90" cy="63" r="7" fill="#7c3aed"/>
       </g>
       <text x="188" y="470" font-family="'Outfit','Inter',system-ui,-apple-system,'Segoe UI',Roboto,sans-serif" font-size="22" fill="#475569">Curriculum, culture, internships -</text>
       <text x="188" y="512" font-family="'Outfit','Inter',system-ui,-apple-system,'Segoe UI',Roboto,sans-serif" font-size="22" fill="#475569">an honest student guide.</text>
       <text x="188" y="636" font-family="'JetBrains Mono','Fira Code',ui-monospace,'Cascadia Code',Consolas,monospace" font-size="16" fill="#94a3b8">~ kalanalk.com</text></svg>
