<svg width="1280" height="720" viewBox="0 0 1280 720" xmlns="http://www.w3.org/2000/svg"><defs><linearGradient id="bg" x1="0" y1="0" x2="1" y2="1"><stop offset="0" stop-color="#160a1e"/><stop offset="1" stop-color="#080410"/></linearGradient><radialGradient id="f" cx="0.5" cy="0.5" r="0.5"><stop offset="0" stop-color="#d946ef" stop-opacity="0.5"/><stop offset="1" stop-color="#d946ef" stop-opacity="0"/></radialGradient><radialGradient id="v" cx="0.5" cy="0.5" r="0.5"><stop offset="0" stop-color="#a78bfa" stop-opacity="0.4"/><stop offset="1" stop-color="#a78bfa" stop-opacity="0"/></radialGradient><pattern id="dg" width="30" height="30" patternUnits="userSpaceOnUse"><circle cx="2" cy="2" r="1.3" fill="#ffffff" opacity="0.05"/></pattern><radialGradient id="node" cx="0.5" cy="0.5" r="0.5"><stop offset="0" stop-color="#d946ef" stop-opacity="0.55"/><stop offset="1" stop-color="#d946ef" stop-opacity="0"/></radialGradient></defs><rect width="1280" height="720" fill="url(#bg)"/>
     <circle cx="980" cy="240" r="420" fill="url(#f)"/><circle cx="260" cy="560" r="320" fill="url(#v)"/>
     <rect width="1280" height="720" fill="url(#dg)"/>
     <circle cx="101" cy="90" r="5" fill="#e879f9"/><text x="116" y="96" font-family="'Outfit','Inter',system-ui,-apple-system,'Segoe UI',Roboto,sans-serif" font-size="20" font-weight="600" letter-spacing="4" fill="#e879f9">AI ENGINEERING</text>
     <g transform="translate(168,18)">
     <!-- cycle arrows -->
     <g fill="none" stroke="#d946ef" stroke-opacity="0.55" stroke-width="2.5">
       <path d="M 760 250 A 200 200 0 0 1 760 590" marker-end="url(#ah)"/>
       <path d="M 700 600 A 200 200 0 0 1 560 360" marker-end="url(#ah)"/>
       <path d="M 600 320 A 200 200 0 0 1 740 250" marker-end="url(#ah)"/>
     </g>
     <marker id="ah" markerWidth="10" markerHeight="10" refX="6" refY="3" orient="auto"><path d="M0,0 L6,3 L0,6 Z" fill="#e879f9"/></marker>
     <!-- center agent -->
     <circle cx="670" cy="430" r="150" fill="url(#node)"/>
     <circle cx="670" cy="430" r="92" fill="#1a0f24" stroke="#e879f9" stroke-opacity="0.6" stroke-width="1.5"/>
     <text x="670" y="424" font-family="'Outfit','Inter',system-ui,-apple-system,'Segoe UI',Roboto,sans-serif" font-size="26" font-weight="700" fill="#fff" text-anchor="middle">Agent</text>
     <text x="670" y="452" font-family="'JetBrains Mono','Fira Code',ui-monospace,'Cascadia Code',Consolas,monospace" font-size="14" fill="#e879f9" text-anchor="middle">loop</text>
     <!-- 3 satellite nodes -->
     <circle cx="760" cy="250" r="50" fill="#140a1c" stroke="#a78bfa" stroke-width="2"/><text x="760" y="256" font-family="'Outfit','Inter',system-ui,-apple-system,'Segoe UI',Roboto,sans-serif" font-size="17" font-weight="600" fill="#a78bfa" text-anchor="middle">Model</text><circle cx="470" cy="360" r="50" fill="#140a1c" stroke="#22d3ee" stroke-width="2"/><text x="470" y="366" font-family="'Outfit','Inter',system-ui,-apple-system,'Segoe UI',Roboto,sans-serif" font-size="17" font-weight="600" fill="#22d3ee" text-anchor="middle">Tools</text><circle cx="720" cy="600" r="50" fill="#140a1c" stroke="#34d399" stroke-width="2"/><text x="720" y="606" font-family="'Outfit','Inter',system-ui,-apple-system,'Segoe UI',Roboto,sans-serif" font-size="17" font-weight="600" fill="#34d399" text-anchor="middle">Memory</text>
     </g>
     <text x="96" y="430" font-family="'Outfit','Inter',system-ui,-apple-system,'Segoe UI',Roboto,sans-serif" font-size="46" font-weight="700" fill="#ffffff" letter-spacing="-1" text-anchor="start">What Is Agentic</text><text x="96" y="481" font-family="'Outfit','Inter',system-ui,-apple-system,'Segoe UI',Roboto,sans-serif" font-size="46" font-weight="700" fill="#ffffff" letter-spacing="-1" text-anchor="start">AI? A Developer's</text><text x="96" y="532" font-family="'Outfit','Inter',system-ui,-apple-system,'Segoe UI',Roboto,sans-serif" font-size="46" font-weight="700" fill="#ffffff" letter-spacing="-1" text-anchor="start">Guide to AI</text><text x="96" y="583" font-family="'Outfit','Inter',system-ui,-apple-system,'Segoe UI',Roboto,sans-serif" font-size="46" font-weight="700" fill="#ffffff" letter-spacing="-1" text-anchor="start">Agents</text>
     <rect x="98" y="600" width="120" height="6" rx="3" fill="#e879f9"/></svg>
