<svg width="1280" height="720" viewBox="0 0 1280 720" xmlns="http://www.w3.org/2000/svg" role="img" aria-label="Regex Tester - Text tool">
<defs>
  <linearGradient id="bg" x1="0" y1="0" x2="1" y2="1">
    <stop offset="0" stop-color="#0a1207"/>
    <stop offset="1" stop-color="#060510"/>
  </linearGradient>
  <radialGradient id="b1" cx="0.5" cy="0.5" r="0.5">
    <stop offset="0" stop-color="#34d399" stop-opacity="0.55"/>
    <stop offset="1" stop-color="#34d399" stop-opacity="0"/>
  </radialGradient>
  <radialGradient id="b2" cx="0.5" cy="0.5" r="0.5">
    <stop offset="0" stop-color="#a3e635" stop-opacity="0.42"/>
    <stop offset="1" stop-color="#a3e635" stop-opacity="0"/>
  </radialGradient>
  <radialGradient id="glow" cx="0.5" cy="0.5" r="0.5">
    <stop offset="0" stop-color="#34d399" stop-opacity="0.50"/>
    <stop offset="1" stop-color="#34d399" stop-opacity="0"/>
  </radialGradient>
  <linearGradient id="tile" x1="0" y1="0" x2="0" y2="1">
    <stop offset="0" stop-color="#ffffff" stop-opacity="0.10"/>
    <stop offset="1" stop-color="#ffffff" stop-opacity="0.02"/>
  </linearGradient>
  <pattern id="dots" width="30" height="30" patternUnits="userSpaceOnUse">
    <circle cx="2" cy="2" r="1.3" fill="#ffffff" opacity="0.05"/>
  </pattern>
</defs>

<rect width="1280" height="720" fill="url(#bg)"/>
<circle cx="1050" cy="230" r="440" fill="url(#b1)"/>
<circle cx="170" cy="610" r="380" fill="url(#b2)"/>
<rect width="1280" height="720" fill="url(#dots)"/>

<!-- decorative oversized watermark of the same icon -->
<g transform="translate(250 470) scale(15.0000)" fill="none" stroke="#a3e635" stroke-width="0.333" stroke-linecap="round" stroke-linejoin="round" opacity="0.06"><path d="M17 3v10"></path><path d="m12.67 5.5 8.66 5"></path><path d="m12.67 10.5 8.66-5"></path><path d="M9 17a2 2 0 0 0-2-2H5a2 2 0 0 0-2 2v2a2 2 0 0 0 2 2h2a2 2 0 0 0 2-2v-2z"></path></g>

<!-- glass icon tile -->
<circle cx="1012" cy="360" r="250" fill="url(#glow)"/>
<rect x="862" y="210" width="300" height="300" rx="60" fill="url(#tile)" stroke="#34d399" stroke-opacity="0.45" stroke-width="1.5"/>
<g transform="translate(937 285) scale(6.2500)" fill="none" stroke="#34d399" stroke-width="0.544" stroke-linecap="round" stroke-linejoin="round" opacity="1"><path d="M17 3v10"></path><path d="m12.67 5.5 8.66 5"></path><path d="m12.67 10.5 8.66-5"></path><path d="M9 17a2 2 0 0 0-2-2H5a2 2 0 0 0-2 2v2a2 2 0 0 0 2 2h2a2 2 0 0 0 2-2v-2z"></path></g>

<!-- left text -->
<circle cx="102" cy="317" r="5" fill="#34d399"/>
<text x="120" y="323" font-family="'Outfit','Inter',system-ui,-apple-system,'Segoe UI',Roboto,sans-serif" font-size="22" font-weight="600" letter-spacing="5" fill="#34d399">TEXT</text>
<text x="96" y="414.4" font-family="'Outfit','Inter',system-ui,-apple-system,'Segoe UI',Roboto,sans-serif" font-size="70" font-weight="700" fill="#ffffff" letter-spacing="-1">Regex Tester</text>
<rect x="98" y="442.4" width="116" height="6" rx="3" fill="#34d399"/>

<text x="96" y="672" font-family="'Outfit','Inter',system-ui,-apple-system,'Segoe UI',Roboto,sans-serif" font-size="20" font-weight="500" letter-spacing="2" fill="#ffffff" opacity="0.32">kalanalk.com</text>
</svg>
