<svg width="1280" height="720" viewBox="0 0 1280 720" xmlns="http://www.w3.org/2000/svg" role="img" aria-label="UUID Generator - Generators tool">
<defs>
  <linearGradient id="bg" x1="0" y1="0" x2="1" y2="1">
    <stop offset="0" stop-color="#0f0a1a"/>
    <stop offset="1" stop-color="#060510"/>
  </linearGradient>
  <radialGradient id="b1" cx="0.5" cy="0.5" r="0.5">
    <stop offset="0" stop-color="#8b5cf6" stop-opacity="0.55"/>
    <stop offset="1" stop-color="#8b5cf6" stop-opacity="0"/>
  </radialGradient>
  <radialGradient id="b2" cx="0.5" cy="0.5" r="0.5">
    <stop offset="0" stop-color="#d946ef" stop-opacity="0.42"/>
    <stop offset="1" stop-color="#d946ef" stop-opacity="0"/>
  </radialGradient>
  <radialGradient id="glow" cx="0.5" cy="0.5" r="0.5">
    <stop offset="0" stop-color="#8b5cf6" stop-opacity="0.50"/>
    <stop offset="1" stop-color="#8b5cf6" stop-opacity="0"/>
  </radialGradient>
  <linearGradient id="tile" x1="0" y1="0" x2="0" y2="1">
    <stop offset="0" stop-color="#ffffff" stop-opacity="0.10"/>
    <stop offset="1" stop-color="#ffffff" stop-opacity="0.02"/>
  </linearGradient>
  <pattern id="dots" width="30" height="30" patternUnits="userSpaceOnUse">
    <circle cx="2" cy="2" r="1.3" fill="#ffffff" opacity="0.05"/>
  </pattern>
</defs>

<rect width="1280" height="720" fill="url(#bg)"/>
<circle cx="1050" cy="230" r="440" fill="url(#b1)"/>
<circle cx="170" cy="610" r="380" fill="url(#b2)"/>
<rect width="1280" height="720" fill="url(#dots)"/>

<!-- decorative oversized watermark of the same icon -->
<g transform="translate(250 470) scale(15.0000)" fill="none" stroke="#d946ef" stroke-width="0.333" stroke-linecap="round" stroke-linejoin="round" opacity="0.06"><path d="M12 10a2 2 0 0 0-2 2c0 1.02-.1 2.51-.26 4"></path><path d="M14 13.12c0 2.38 0 6.38-1 8.88"></path><path d="M17.29 21.02c.12-.6.43-2.3.5-3.02"></path><path d="M2 12a10 10 0 0 1 18-6"></path><path d="M2 16h.01"></path><path d="M21.8 16c.2-2 .131-5.354 0-6"></path><path d="M5 19.5C5.5 18 6 15 6 12a6 6 0 0 1 .34-2"></path><path d="M8.65 22c.21-.66.45-1.32.57-2"></path><path d="M9 6.8a6 6 0 0 1 9 5.2v2"></path></g>

<!-- glass icon tile -->
<circle cx="1012" cy="360" r="250" fill="url(#glow)"/>
<rect x="862" y="210" width="300" height="300" rx="60" fill="url(#tile)" stroke="#8b5cf6" stroke-opacity="0.45" stroke-width="1.5"/>
<g transform="translate(937 285) scale(6.2500)" fill="none" stroke="#8b5cf6" stroke-width="0.544" stroke-linecap="round" stroke-linejoin="round" opacity="1"><path d="M12 10a2 2 0 0 0-2 2c0 1.02-.1 2.51-.26 4"></path><path d="M14 13.12c0 2.38 0 6.38-1 8.88"></path><path d="M17.29 21.02c.12-.6.43-2.3.5-3.02"></path><path d="M2 12a10 10 0 0 1 18-6"></path><path d="M2 16h.01"></path><path d="M21.8 16c.2-2 .131-5.354 0-6"></path><path d="M5 19.5C5.5 18 6 15 6 12a6 6 0 0 1 .34-2"></path><path d="M8.65 22c.21-.66.45-1.32.57-2"></path><path d="M9 6.8a6 6 0 0 1 9 5.2v2"></path></g>

<!-- left text -->
<circle cx="102" cy="317" r="5" fill="#8b5cf6"/>
<text x="120" y="323" font-family="'Outfit','Inter',system-ui,-apple-system,'Segoe UI',Roboto,sans-serif" font-size="22" font-weight="600" letter-spacing="5" fill="#8b5cf6">GENERATORS</text>
<text x="96" y="414.4" font-family="'Outfit','Inter',system-ui,-apple-system,'Segoe UI',Roboto,sans-serif" font-size="70" font-weight="700" fill="#ffffff" letter-spacing="-1">UUID Generator</text>
<rect x="98" y="442.4" width="116" height="6" rx="3" fill="#8b5cf6"/>

<text x="96" y="672" font-family="'Outfit','Inter',system-ui,-apple-system,'Segoe UI',Roboto,sans-serif" font-size="20" font-weight="500" letter-spacing="2" fill="#ffffff" opacity="0.32">kalanalk.com</text>
</svg>
